<svg width="1280" height="404" viewBox="0 0 1280 404" fill="none" xmlns="http://www.w3.org/2000/svg"><path d="M621.112 125.876H309.86V404h311.252c43.162 0 78.189-35.063 78.189-78.269V204.146c0-43.206-34.991-78.27-78.189-78.27zm-37.299 214.306c0 19.952-16.158 36.127-36.089 36.127H425.311V153.568h122.413c19.931 0 36.089 16.174 36.089 36.127v150.487zM36.09 125.876h225.699v27.692H121.46a5.992 5.992 0 00-6.009 6.015v86.668h146.338v27.691H115.488v130.021H0v-241.96c0-19.952 16.158-36.127 36.09-36.127zM1160.3 52.668C1198.37 38.474 1238.63 21.053 1280 0v404h-115.45V102.88l-90.06 166.184v134.899H959.002V155.842l-90.06 166.184V404H753.454V161.967c0-19.549 15.535-35.504 35.064-36.091 27.04-.807 53.86-3.044 80.424-5.685V263.93l84.087-155.145c39.498-6.786 80.351-16.065 121.461-27.838v130.057l85.85-158.335h-.04z" fill="#1E1E1E"/></svg>